<svg width="41" height="34" viewBox="0 0 41 34" fill="none" xmlns="http://www.w3.org/2000/svg">
<path d="M1 8.93014C1 4.35586 9.53029 1 21.1053 1C32.0862 1 39.6799 5.99063 40 13.4529H33.4583C33.0923 8.92039 28.5168 6.44875 21.1053 6.44875C13.4197 6.44875 8.29458 10.661 8.29458 17.757C8.29458 24.8531 13.4183 29.0194 21.1053 29.0194C27.9226 29.0194 33.4583 26.8805 33.4583 21.4192H24.6023V16.6584H40C40 20.5127 39.9429 26.4823 35.3911 30.4286C33.2773 32.261 30.1867 33.2929 27.3201 32.9267C24.9363 32.6217 23.176 31.0357 22.3563 28.9943C21.1485 25.9838 20.5598 20.9138 16.4158 17.6805C14.0153 15.8076 10.2316 15.0347 7.39702 14.3942C4.31888 13.6966 1 11.8112 1 8.93014Z" stroke="#003D2B"/>
</svg>
